<svg xmlns="http://www.w3.org/2000/svg" width="63.043" height="48.728" viewBox="0 0 63.043 48.728"><defs><style>.a{fill:#31a8ff;}</style></defs><path class="a" d="M11.689,75.08V59.215c.846.082,1.844.125,2.933.125,6.638,0,12.005-1.751,15.523-5.066a15.558,15.558,0,0,0,4.469-11.484,14.154,14.154,0,0,0-5.2-11.245c-3.247-2.6-8.018-3.86-14.586-3.86A87.786,87.786,0,0,0,.538,28.66.646.646,0,0,0,0,29.3V75.08a.646.646,0,0,0,.646.646h10.4A.646.646,0,0,0,11.689,75.08Zm0-25.249V37.18A19.965,19.965,0,0,1,15.38,36.9c4.8,0,7.547,2.249,7.547,6.169,0,4.337-3.13,6.927-8.373,6.927A18.773,18.773,0,0,1,11.689,49.831Z" transform="translate(0 -27.687)"/><path class="a" d="M157.5,89.229c-4.283-1.5-5.006-2.213-5.006-3.245,0-1.834,2.1-2.108,3.347-2.108a15.883,15.883,0,0,1,6.988,1.848.646.646,0,0,0,.935-.406l1.859-7.228a.646.646,0,0,0-.337-.739,23.227,23.227,0,0,0-9.79-2c-8.447,0-14.347,4.8-14.347,11.651-.057,3.345,1.633,7.924,10.012,10.744,4.07,1.357,4.515,2.062,4.515,3.243,0,.538,0,2.176-3.829,2.176a19.786,19.786,0,0,1-8.684-2.454.647.647,0,0,0-.963.4l-1.859,7.5a.646.646,0,0,0,.32.724,24.442,24.442,0,0,0,11.185,2.418c9.4,0,15.242-4.416,15.242-11.533C167.012,94.877,164.053,91.485,157.5,89.229Z" transform="translate(-104.043 -63.031)"/></svg>